ModelForces
version=1
nRows=4
nColumns=157
inDegrees=no

This file contains the forces exerted on a model during a simulation.

A force is a generalized force, meaning that it can be either a force (N) or a torque (Nm).

Units are S.I. units (second, meters, Newtons, ...)
Angles are in degrees.

endheader
time	glut_med1_r	glut_med2_r	glut_med3_r	glut_min1_r	glut_min2_r	glut_min3_r	semimem_r	semiten_r	bifemlh_r	bifemsh_r	sar_r	add_long_r	add_brev_r	add_mag1_r	add_mag2_r	add_mag3_r	tfl_r	pect_r	grac_r	glut_max1_r	glut_max2_r	glut_max3_r	iliacus_r	psoas_r	quad_fem_r	gem_r	peri_r	rect_fem_r	vas_med_r	vas_int_r	vas_lat_r	med_gas_r	lat_gas_r	soleus_r	tib_post_r	flex_dig_r	flex_hal_r	tib_ant_r	per_brev_r	per_long_r	per_tert_r	ext_dig_r	ext_hal_r	glut_med1_l	glut_med2_l	glut_med3_l	glut_min1_l	glut_min2_l	glut_min3_l	semimem_l	semiten_l	bifemlh_l	bifemsh_l	sar_l	add_long_l	add_brev_l	add_mag1_l	add_mag2_l	add_mag3_l	tfl_l	pect_l	grac_l	glut_max1_l	glut_max2_l	glut_max3_l	iliacus_l	psoas_l	quad_fem_l	gem_l	peri_l	rect_fem_l	vas_med_l	vas_int_l	vas_lat_l	med_gas_l	lat_gas_l	soleus_l	tib_post_l	flex_dig_l	flex_hal_l	tib_ant_l	per_brev_l	per_long_l	per_tert_l	ext_dig_l	ext_hal_l	ercspn_r	ercspn_l	intobl_r	intobl_l	extobl_r	extobl_l	femur_lat_meniscii_r.femur_lat_r.force.X	femur_lat_meniscii_r.femur_lat_r.force.Y	femur_lat_meniscii_r.femur_lat_r.force.Z	femur_lat_meniscii_r.femur_lat_r.torque.X	femur_lat_meniscii_r.femur_lat_r.torque.Y	femur_lat_meniscii_r.femur_lat_r.torque.Z	femur_lat_meniscii_r.meniscus_lat_r.force.X	femur_lat_meniscii_r.meniscus_lat_r.force.Y	femur_lat_meniscii_r.meniscus_lat_r.force.Z	femur_lat_meniscii_r.meniscus_lat_r.torque.X	femur_lat_meniscii_r.meniscus_lat_r.torque.Y	femur_lat_meniscii_r.meniscus_lat_r.torque.Z	femur_med_meniscii_r.femur_med_r.force.X	femur_med_meniscii_r.femur_med_r.force.Y	femur_med_meniscii_r.femur_med_r.force.Z	femur_med_meniscii_r.femur_med_r.torque.X	femur_med_meniscii_r.femur_med_r.torque.Y	femur_med_meniscii_r.femur_med_r.torque.Z	femur_med_meniscii_r.meniscus_med_r.force.X	femur_med_meniscii_r.meniscus_med_r.force.Y	femur_med_meniscii_r.meniscus_med_r.force.Z	femur_med_meniscii_r.meniscus_med_r.torque.X	femur_med_meniscii_r.meniscus_med_r.torque.Y	femur_med_meniscii_r.meniscus_med_r.torque.Z	femur_med_tibia_r.tibia_upper_r.force.X	femur_med_tibia_r.tibia_upper_r.force.Y	femur_med_tibia_r.tibia_upper_r.force.Z	femur_med_tibia_r.tibia_upper_r.torque.X	femur_med_tibia_r.tibia_upper_r.torque.Y	femur_med_tibia_r.tibia_upper_r.torque.Z	femur_med_tibia_r.femur_med_r.force.X	femur_med_tibia_r.femur_med_r.force.Y	femur_med_tibia_r.femur_med_r.force.Z	femur_med_tibia_r.femur_med_r.torque.X	femur_med_tibia_r.femur_med_r.torque.Y	femur_med_tibia_r.femur_med_r.torque.Z	femur_lat_tibia_r.tibia_upper_r.force.X	femur_lat_tibia_r.tibia_upper_r.force.Y	femur_lat_tibia_r.tibia_upper_r.force.Z	femur_lat_tibia_r.tibia_upper_r.torque.X	femur_lat_tibia_r.tibia_upper_r.torque.Y	femur_lat_tibia_r.tibia_upper_r.torque.Z	femur_lat_tibia_r.femur_lat_r.force.X	femur_lat_tibia_r.femur_lat_r.force.Y	femur_lat_tibia_r.femur_lat_r.force.Z	femur_lat_tibia_r.femur_lat_r.torque.X	femur_lat_tibia_r.femur_lat_r.torque.Y	femur_lat_tibia_r.femur_lat_r.torque.Z	aACL_R	pACL_R	aPCL_R	pPCL_R	aMCL_R	mMCL_R	pMCL_R	aLCL_R	mLCL_R	pLCL_R	ground_prescribedForce_fx	ground_prescribedForce_fy	ground_prescribedForce_fz	ground_prescribedForce_px	ground_prescribedForce_py	ground_prescribedForce_pz
      0.00000000	     37.48087652	     28.28714471	     30.25598133	     13.28977762	     14.47626353	     15.91713841	     19.75574241	     19.39969815	     28.08758435	     32.86391948	      7.51392339	     27.93927808	     20.68957741	     14.51222487	     12.16230296	     19.66717628	     12.36347797	     11.16605282	      7.50437259	     18.12681708	     27.55933735	     20.56469162	     63.94906620	     55.74758807	     18.09791099	      9.16719286	     20.03897647	     57.77792964	     47.65608314	     50.07958393	     66.35999724	     42.77225239	     23.07018372	    152.72720615	     92.44658902	     14.93332009	     15.26895791	     41.82851940	     21.62523106	     46.40594865	      8.86060096	     25.04818486	      7.96045570	     37.48087652	     28.28714471	     30.25598133	     13.28977762	     14.47626353	     15.91713841	     42.06683902	     20.39635155	     37.67631238	     36.01822118	      7.59254209	     27.93927808	     20.68957741	     14.51222487	     12.16230296	     19.66717628	     12.58139899	     11.16605282	      7.78214370	     18.12681708	     27.55933735	     20.56469162	     63.94906620	     55.74758807	     18.09791099	      9.16719286	     20.03897647	     52.59637061	     32.48786114	     37.22481259	     39.87514307	     67.71424671	     31.64857027	    152.72720615	     92.44658902	     14.93332009	     15.26895791	     41.82851940	     21.62523106	     46.40594865	      8.86060096	     25.04818486	      7.96045570	    124.99446086	    124.99446086	     44.97041513	     44.97041513	     60.98287244	     60.98287244	     67.73376518	     70.62983087	      7.02708922	     -4.66083787	      1.71713834	     27.87781711	    -67.73376518	    -70.62983087	     -7.02708922	      2.28809683	     -2.08121608	     -1.34770943	      0.01259777	      0.63748467	     -0.05768399	      0.03523784	      0.00050677	      0.01336461	     -0.01259777	     -0.63748467	      0.05768399	     -0.01034783	     -0.00004648	     -0.00284198	    -19.79347526	    -34.02058234	     17.10093260	     -0.97776872	      0.34624258	     -0.45197867	     19.79347526	     34.02058234	    -17.10093260	      7.66756435	     -0.28119103	      8.32449645	      0.00000000	      0.00000000	      0.00000000	      0.00000000	      0.00000000	      0.00000000	      0.00000000	      0.00000000	      0.00000000	      0.00000000	      0.00000000	      0.00000000	     22.88079014	      7.60641182	    174.08315868	    146.18621272	      0.00000000	      0.00000000	      0.00000000	      0.00000000	      0.00000000	      0.00000000	     95.26279000	    -55.00000000	      0.00000000	      0.03000000	     -0.03000000	      0.00000000
      0.00100000	     37.47068608	     28.27022932	     30.24086714	     13.26950867	     14.46480712	     15.91260065	     19.15691571	     18.87462979	     27.44567635	     30.08773949	      7.02400169	     27.92554748	     20.64313666	     14.50364319	     12.15716021	     19.66293667	     12.11609723	     11.15324218	      7.09850454	     18.11779344	     27.54583488	     20.55620729	     63.92578024	     55.73415570	     18.08271668	      9.16509816	     20.03713766	     56.50771442	     45.21939917	     47.54029274	     63.69237272	     40.77859257	     22.04967840	    148.81927520	     92.15552956	     14.97799034	     15.27461120	     43.02172625	     21.42069057	     46.12707392	      9.13933045	     25.28115975	      8.05427299	     37.47068608	     28.27022932	     30.24086714	     13.26950867	     14.46480712	     15.91260065	     42.06228881	     20.39020965	     37.67123261	     35.98888344	      7.57882260	     27.92554748	     20.64313666	     14.50364319	     12.15716021	     19.66293667	     12.58033419	     11.15324218	      7.77413879	     18.11779344	     27.54583488	     20.55620729	     63.92578024	     55.73415570	     18.08271668	      9.16509816	     20.03713766	     52.58867645	     32.47668845	     37.21372981	     39.86386325	     67.70976811	     31.64643975	    152.71327822	     92.44307771	     14.93402208	     15.26942871	     41.82127614	     21.62263156	     46.40335095	      8.85785788	     25.04326423	      7.95848292	    124.81723588	    124.81723588	     44.95337082	     44.95337082	     60.96445217	     60.96445217	    177.33319762	    172.38099444	     14.62828810	    -10.30174167	      4.45122346	     73.07910109	   -177.33319762	   -172.38099444	    -14.62828810	      5.47420728	     -5.36958580	     -3.73466951	      0.08468528	      2.02904641	     -0.15069883	      0.09845886	      0.00047059	      0.06162135	     -0.08468528	     -2.02904641	      0.15069883	     -0.03183936	      0.00050645	     -0.01102938	    -80.11327883	   -137.48994103	     60.36158878	     -3.69537789	      1.35204034	     -1.86191541	     80.11327883	    137.48994103	    -60.36158878	     27.38264008	     -1.16570590	     33.72461800	      0.00000000	      0.00000000	      0.00000000	      0.00000000	      0.00000000	      0.00000000	      0.00000000	      0.00000000	      0.00000000	      0.00000000	      0.00000000	      0.00000000	     -1.87146730	    -18.58900849	    143.95745126	     79.54233176	      0.00000000	      0.00000000	      0.00000000	      0.00000000	      0.00000000	      0.00000000	     95.26279000	    -55.00000000	      0.00000000	      0.03000000	     -0.03000000	      0.00000000
      0.00239703	     37.42283205	     28.19355304	     30.17161837	     13.18651096	     14.41405179	     15.89132012	     17.72993342	     17.67442259	     26.13467676	     25.69391316	      6.31723411	     27.86258836	     20.46760405	     14.46472063	     12.13340472	     19.64290753	     11.48868643	     11.09856309	      6.38822941	     18.07644968	     27.48391684	     20.51697212	     63.81846540	     55.67090790	     18.01563652	      9.15524926	     20.02833283	     53.54317667	     39.38941278	     41.53628914	     57.14141842	     35.40021607	     19.32959720	    135.69699335	     91.35580740	     15.22322617	     15.37406199	     47.49845122	     20.55079583	     44.98255920	     10.05770394	     25.98589151	      8.35603141	     37.42283205	     28.19355304	     30.17161837	     13.18651096	     14.41405179	     15.89132012	     42.04054406	     20.36145497	     37.64702374	     35.85900260	      7.52437411	     27.86258836	     20.46760405	     14.46472063	     12.13340472	     19.64290753	     12.57523760	     11.09856309	      7.73952186	     18.07644968	     27.48391684	     20.51697212	     63.81846540	     55.67090790	     18.01563652	      9.15524926	     20.02833283	     52.55205120	     32.42463995	     37.16184074	     39.81097002	     67.68826415	     31.63621089	    152.64658179	     92.42618940	     14.93726851	     15.27156297	     41.78689644	     21.61022072	     46.39086217	      8.84503807	     25.01999407	      7.94918398	    124.08288395	    124.08288395	     44.87424505	     44.87424505	     60.87936644	     60.87936644	    169.77387437	    169.74099072	     33.75189742	    -18.14781904	      4.29069242	     69.87405866	   -169.77387437	   -169.74099072	    -33.75189742	      5.98776402	     -5.33678492	     -3.44743960	      0.22630186	      3.74908733	     -0.18575455	      0.14398222	     -0.00146911	      0.14398449	     -0.22630186	     -3.74908733	      0.18575455	     -0.05661841	      0.00216049	     -0.02359623	   -201.52945094	   -348.87934839	    131.81328438	     -8.78741719	      3.31888099	     -4.73897867	    201.52945094	    348.87934839	   -131.81328438	     60.69281735	     -3.00696707	     84.92275660	      0.00000000	      0.00000000	      0.00000000	      0.00000000	      0.00000000	      0.00000000	      0.00000000	      0.00000000	      0.00000000	      0.00000000	      0.00000000	      0.00000000	    -10.25280798	    -29.29151656	    134.20592380	     82.07324479	      0.00000000	      0.00000000	      0.00000000	      0.00000000	      0.00000000	      0.00000000	     95.26279000	    -55.00000000	      0.00000000	      0.03000000	     -0.03000000	      0.00000000
      0.00427482	     37.29882696	     28.00522962	     29.99879766	     13.00938281	     14.29348367	     15.83629155	     16.79436324	     16.97986811	     25.95698571	     25.99556960	      6.31386852	     27.70527517	     20.12767162	     14.36903224	     12.07337967	     19.59051577	     10.84475156	     10.97526273	      6.29023795	     17.97325571	     27.32917185	     20.41766516	     63.54823736	     55.50632650	     17.85708542	      9.12967700	     20.00480693	     51.78877152	     35.37594335	     37.42608243	     52.39444815	     28.98133453	     16.12003814	    113.49906820	     90.10742962	     15.87687499	     15.73457711	     56.36000802	     18.83529789	     42.68749352	     11.62382876	     27.02961689	      8.82787620	     37.29882696	     28.00522962	     29.99879766	     13.00938281	     14.29348367	     15.83629155	     41.98262463	     20.28729407	     37.58282132	     35.55078508	      7.41265676	     27.70527517	     20.12767162	     14.36903224	     12.07337967	     19.59051577	     12.56162843	     10.97526273	      7.66005056	     17.97325571	     27.32917185	     20.41766516	     63.54823736	     55.50632650	     17.85708542	      9.12967700	     20.00480693	     52.45510353	     32.29139911	     37.02798348	     39.67418759	     67.63055402	     31.60876366	    152.46835009	     92.38074148	     14.94538960	     15.27669359	     41.69630613	     21.57721448	     46.35727817	      8.81206337	     24.95916232	      7.92500591	    122.49141696	    122.49141696	     44.67280535	     44.67280535	     60.66434807	     60.66434807	    133.14925866	    129.98741700	     49.71147471	    -23.73487463	      3.34109704	     54.70780567	   -133.14925866	   -129.98741700	    -49.71147471	      5.27408013	     -4.34411673	     -2.63892104	      0.40914403	      4.02176195	      0.06643685	      0.04886008	     -0.00832408	      0.22223413	     -0.40914403	     -4.02176195	     -0.06643685	     -0.05761884	      0.00602750	     -0.02927090	   -163.67789092	   -281.50643682	     89.23107959	     -6.65409994	      2.64298878	     -3.92875228	    163.67789092	    281.50643682	    -89.23107959	     41.91987528	     -2.50781935	     69.04371917	      0.00000000	      0.00000000	      0.00000000	      0.00000000	      0.00000000	      0.00000000	      0.00000000	      0.00000000	      0.00000000	      0.00000000	      0.00000000	      0.00000000	     -7.31506033	    -28.39443775	    132.91312969	     98.65794217	      0.00000000	      0.00000000	      0.00000000	      0.00000000	      0.00000000	      0.00000000	     95.26279000	    -55.00000000	      0.00000000	      0.03000000	     -0.03000000	      0.00000000
